<svg width="122" height="122" viewBox="0 0 122 122" fill="none" xmlns="http://www.w3.org/2000/svg">
<path d="M104.191 61.1958C104.191 84.9412 84.9414 104.191 61.1959 104.191C37.4505 104.191 18.201 84.9412 18.201 61.1958C18.201 37.4503 37.4505 18.2008 61.1959 18.2008C84.9414 18.2008 104.191 37.4503 104.191 61.1958ZM20.0371 61.1958C20.0371 83.9271 38.4645 102.355 61.1959 102.355C83.9273 102.355 102.355 83.9271 102.355 61.1958C102.355 38.4644 83.9273 20.037 61.1959 20.037C38.4645 20.037 20.0371 38.4644 20.0371 61.1958Z" fill="white" fill-opacity="0.3"/>
<path d="M28.3676 88.9602C33.0344 94.4781 39.0167 98.7307 45.7618 101.325C52.5069 103.919 59.7971 104.771 66.9586 103.803C74.1202 102.834 80.9221 100.076 86.7357 95.7832C92.5493 91.4903 97.187 85.8014 100.22 79.242C103.254 72.6826 104.585 65.4645 104.09 58.2546C103.596 51.0448 101.292 44.0758 97.3919 37.9919C93.4917 31.9079 88.1209 26.9052 81.7757 23.4461C75.4306 19.9869 68.3159 18.183 61.0892 18.2009L61.0937 20.0371C68.0119 20.0199 74.8227 21.7468 80.8969 25.0582C86.971 28.3696 92.1125 33.1587 95.8461 38.9828C99.5798 44.807 101.785 51.4783 102.258 58.3802C102.732 65.2822 101.457 72.192 98.5537 78.4713C95.65 84.7505 91.2103 90.1966 85.645 94.3061C80.0797 98.4156 73.5683 101.056 66.7125 101.983C59.8568 102.91 52.878 102.095 46.4209 99.6112C39.9639 97.1277 34.237 93.0567 29.7696 87.7745L28.3676 88.9602Z" fill="white"/>
</svg>
