<svg width="90" height="91" viewBox="0 0 90 91" fill="none" xmlns="http://www.w3.org/2000/svg">
<path d="M82.1099 39.164C80.7758 39.1621 79.4817 39.619 78.4445 40.458C77.4074 41.2971 76.6903 42.4673 76.4135 43.7723H68.6174C68.3344 38.3232 66.1665 33.1417 62.4848 29.1146L68.0124 23.5967C69.2027 24.3846 70.6422 24.7046 72.0542 24.4952C73.4662 24.2858 74.7509 23.5617 75.6613 22.4623C76.5717 21.3629 77.0434 19.9656 76.9858 18.5394C76.9282 17.1131 76.3453 15.7585 75.3493 14.736C74.3532 13.7136 73.0143 13.0955 71.59 13.0006C70.1657 12.9058 68.7567 13.3409 67.6338 14.2222C66.5109 15.1035 65.7536 16.3689 65.5073 17.7749C65.2611 19.181 65.5434 20.6284 66.2999 21.8388L60.7352 27.4035C56.6806 23.7715 51.493 21.656 46.0547 21.4168V13.6149C47.4665 13.3541 48.732 12.5805 49.6077 11.4428C50.4834 10.3052 50.9075 8.88391 50.7984 7.4524C50.6894 6.02088 50.0548 4.68027 49.0168 3.68845C47.9788 2.69663 46.6107 2.12368 45.1757 2.07981C43.7407 2.03594 42.3402 2.52425 41.2435 3.45081C40.1469 4.37737 39.4316 5.67672 39.2353 7.0989C39.039 8.52107 39.3755 9.96562 40.1801 11.1546C40.9847 12.3436 42.2005 13.1931 43.5938 13.5397V21.4351C38.2067 21.7524 33.0918 23.9094 29.1043 27.5456L23.5809 22.0224C24.3846 20.8332 24.7201 19.3889 24.523 17.9672C24.3259 16.5455 23.6101 15.2469 22.5132 14.3213C21.4163 13.3956 20.0159 12.9082 18.5813 12.9529C17.1468 12.9976 15.7794 13.5712 14.7422 14.5633C13.7051 15.5555 13.0715 16.8961 12.9632 18.3273C12.855 19.7585 13.2798 21.1791 14.156 22.316C15.0321 23.4528 16.2977 24.2255 17.7092 24.4854C19.1207 24.7453 20.5785 24.4741 21.8022 23.7239L27.3723 29.2749C23.7349 33.3242 21.6152 38.5102 21.375 43.9481H13.619C13.3625 42.6122 12.6519 41.4061 11.6079 40.5342C10.5638 39.6623 9.25032 39.1783 7.89012 39.164C7.12353 39.1598 6.36366 39.3072 5.6542 39.5976C4.94475 39.888 4.2997 40.3159 3.75613 40.8564C3.21257 41.397 2.78122 42.0397 2.48688 42.7476C2.19254 43.4554 2.04102 44.2145 2.04102 44.9811C2.04102 45.7477 2.19254 46.5067 2.48688 47.2146C2.78122 47.9224 3.21257 48.5651 3.75613 49.1057C4.2997 49.6463 4.94475 50.0741 5.6542 50.3645C6.36366 50.655 7.12353 50.8023 7.89012 50.7981C9.18904 50.8173 10.4556 50.3928 11.4807 49.5948C12.5057 48.7967 13.2279 47.673 13.528 46.409H21.3936C21.695 51.7921 23.8442 56.9065 27.4785 60.889L21.9876 66.3895C20.7865 65.5819 19.3291 65.2471 17.896 65.4497C16.4628 65.6522 15.1553 66.3777 14.225 67.4866C13.2948 68.5955 12.8076 70.0092 12.8573 71.4558C12.907 72.9023 13.4901 74.2793 14.4942 75.3217C15.4984 76.3641 16.8526 76.9982 18.2963 77.1019C19.74 77.2056 21.1709 76.7716 22.3138 75.8834C23.4566 74.9952 24.2305 73.7157 24.4864 72.2911C24.7424 70.8665 24.4623 69.3976 23.7001 68.1672L29.2238 62.6435C33.2392 66.2572 38.3746 68.3809 43.7695 68.6589V76.4252C42.3657 76.7289 41.1238 77.541 40.2828 78.7053C39.4417 79.8695 39.0609 81.3037 39.2136 82.7318C39.3663 84.16 40.0417 85.4812 41.11 86.4413C42.1782 87.4014 43.5637 87.9325 45 87.9325C46.4363 87.9325 47.8218 87.4014 48.89 86.4413C49.9583 85.4812 50.6337 84.16 50.7864 82.7318C50.9391 81.3037 50.5583 79.8695 49.7173 78.7053C48.8762 77.541 47.6343 76.7289 46.2305 76.4252V68.6589C51.6726 68.3787 56.8492 66.2206 60.8789 62.5522L66.375 68.0486C65.586 69.2494 65.2688 70.6995 65.4847 72.12C65.7005 73.5406 66.4341 74.8311 67.5442 75.7433C68.6543 76.6555 70.0626 77.125 71.498 77.0613C72.9334 76.9977 74.2946 76.4054 75.3196 75.3986C76.3447 74.3917 76.9611 73.0413 77.0504 71.6073C77.1397 70.1732 76.6955 68.7568 75.8033 67.6306C74.9111 66.5043 73.6339 65.7478 72.2175 65.5066C70.801 65.2654 69.3454 65.5565 68.1307 66.324L62.6133 60.7862C66.2303 56.771 68.351 51.6308 68.6174 46.2332H76.4314C76.6676 47.3045 77.2018 48.2871 77.9724 49.0678C78.743 49.8485 79.7187 50.3953 80.7868 50.6453C81.8549 50.8952 82.972 50.838 84.009 50.4804C85.046 50.1227 85.9607 49.4791 86.6476 48.6238C87.3346 47.7686 87.7656 46.7365 87.8912 45.6467C88.0167 44.557 87.8315 43.4539 87.357 42.4649C86.8825 41.4759 86.138 40.6412 85.2095 40.0571C84.2809 39.473 83.2061 39.1634 82.1092 39.164H82.1099ZM68.8658 16.3875C69.4956 15.7577 70.3498 15.4038 71.2405 15.4038C72.1312 15.4038 72.9854 15.7575 73.6153 16.3873C74.2451 17.0171 74.599 17.8713 74.599 18.762C74.599 19.6527 74.2452 20.5069 73.6154 21.1368C73.3042 21.4516 72.9339 21.7019 72.5256 21.8731C72.1174 22.0443 71.6793 22.1331 71.2366 22.1344C70.7939 22.1357 70.3553 22.0495 69.9461 21.8807C69.5368 21.7119 69.165 21.4639 68.852 21.1508C68.5389 20.8378 68.2908 20.466 68.122 20.0567C67.9532 19.6475 67.867 19.2089 67.8682 18.7662C67.8695 18.3235 67.9583 17.8854 68.1295 17.4772C68.3007 17.0689 68.551 16.6985 68.8658 16.3873V16.3875ZM21.1342 21.1368C20.6645 21.6065 20.0661 21.9264 19.4146 22.056C18.7631 22.1857 18.0878 22.1192 17.4741 21.865C16.8604 21.6108 16.3358 21.1804 15.9668 20.6281C15.5977 20.0758 15.4007 19.4264 15.4007 18.7621C15.4007 18.0979 15.5977 17.4485 15.9668 16.8962C16.3358 16.3439 16.8604 15.9134 17.4741 15.6593C18.0878 15.4051 18.7631 15.3386 19.4146 15.4682C20.0661 15.5979 20.6645 15.9178 21.1342 16.3875C21.4461 16.6993 21.6936 17.0695 21.8624 17.4769C22.0312 17.8844 22.1181 18.3211 22.1181 18.7621C22.1181 19.2032 22.0312 19.6399 21.8624 20.0473C21.6936 20.4548 21.4461 20.825 21.1342 21.1368ZM7.89012 48.3612C7.22589 48.3612 6.57658 48.1642 6.0243 47.7951C5.47202 47.4261 5.04159 46.9016 4.78742 46.2879C4.53325 45.6742 4.46677 44.9989 4.59637 44.3475C4.72598 43.696 5.04586 43.0976 5.51556 42.6279C5.98526 42.1582 6.58368 41.8384 7.23516 41.7088C7.88663 41.5792 8.5619 41.6458 9.17557 41.9C9.78924 42.1542 10.3138 42.5846 10.6828 43.1369C11.0518 43.6892 11.2488 44.3385 11.2488 45.0028C11.2478 45.8932 10.8936 46.7469 10.2639 47.3765C9.63425 48.0061 8.78056 48.3603 7.89012 48.3612ZM21.1342 73.618C20.8223 73.9299 20.4521 74.1773 20.0447 74.3461C19.6372 74.5148 19.2005 74.6017 18.7595 74.6017C18.3185 74.6018 17.8818 74.5149 17.4743 74.3462C17.0668 74.1774 16.6966 73.93 16.3848 73.6182C16.0729 73.3064 15.8255 72.9361 15.6567 72.5287C15.4879 72.1212 15.401 71.6845 15.401 71.2435C15.401 70.8025 15.4879 70.3658 15.6566 69.9583C15.8254 69.5509 16.0727 69.1806 16.3846 68.8688C16.9924 68.2599 17.8111 67.9081 18.6711 67.8862C19.5311 67.8643 20.3666 68.174 21.0046 68.7512C21.0933 68.8905 21.2097 69.0102 21.3465 69.1027C21.8797 69.7467 22.1534 70.5664 22.1141 71.4016C22.0749 72.2367 21.7254 73.0271 21.1342 73.6182V73.618ZM68.8658 68.8688C69.3355 68.399 69.9339 68.0791 70.5854 67.9495C71.2369 67.8199 71.9122 67.8863 72.5259 68.1405C73.1396 68.3947 73.6642 68.8252 74.0332 69.3775C74.4023 69.9298 74.5993 70.5791 74.5993 71.2434C74.5993 71.9077 74.4023 72.557 74.0332 73.1093C73.6642 73.6616 73.1396 74.0921 72.5259 74.3463C71.9122 74.6004 71.2369 74.6669 70.5854 74.5373C69.9339 74.4077 69.3355 74.0878 68.8658 73.618C68.5539 73.3062 68.3064 72.936 68.1376 72.5286C67.9688 72.1211 67.8819 71.6844 67.8819 71.2434C67.8819 70.8023 67.9688 70.3656 68.1376 69.9582C68.3064 69.5507 68.5539 69.1805 68.8658 68.8688ZM41.6415 7.89306C41.6415 7.22881 41.8385 6.57949 42.2075 6.02719C42.5766 5.47489 43.1011 5.04443 43.7148 4.79023C44.3285 4.53604 45.0037 4.46953 45.6552 4.59911C46.3067 4.7287 46.9051 5.04857 47.3748 5.51826C47.8445 5.98795 48.1644 6.58637 48.2939 7.23785C48.4235 7.88933 48.357 8.56461 48.1028 9.17829C47.8486 9.79197 47.4182 10.3165 46.8659 10.6855C46.3136 11.0546 45.6642 11.2515 45 11.2515C44.1096 11.2505 43.256 10.8963 42.6264 10.2667C41.9968 9.63707 41.6426 8.78345 41.6415 7.89306ZM48.3585 82.1125C48.3591 82.7663 48.1689 83.4061 47.8112 83.9534C47.4534 84.5007 46.9437 84.9317 46.3445 85.1934C45.7453 85.4552 45.0828 85.5364 44.4382 85.427C43.7935 85.3176 43.1948 85.0224 42.7155 84.5777C42.2363 84.1329 41.8972 83.5579 41.74 82.9233C41.5828 82.2886 41.6143 81.6218 41.8306 81.0048C42.0469 80.3878 42.4386 79.8473 42.9577 79.4497C43.4768 79.0521 44.1006 78.8146 44.7527 78.7665C44.9159 78.7998 45.0841 78.7998 45.2473 78.7665C46.0922 78.8294 46.8821 79.209 47.459 79.8294C48.0359 80.4499 48.3571 81.2653 48.3585 82.1125ZM45 66.2298C40.8093 66.2298 36.7128 64.9871 33.2284 62.6589C29.744 60.3307 27.0282 57.0215 25.4245 53.1499C23.8209 49.2782 23.4013 45.0179 24.2188 40.9078C25.0364 36.7977 27.0544 33.0223 30.0176 30.059C32.9808 27.0958 36.7562 25.0778 40.8664 24.2602C44.9765 23.4427 49.2368 23.8623 53.1084 25.466C56.9801 27.0697 60.2892 29.7854 62.6175 33.2698C64.9457 36.7542 66.1883 40.8508 66.1883 45.0414C66.182 50.659 63.9476 56.0446 59.9754 60.0169C56.0032 63.9891 50.6176 66.2234 45 66.2298ZM82.1099 48.3612C81.4456 48.3612 80.7963 48.1643 80.244 47.7952C79.6917 47.4262 79.2613 46.9017 79.0071 46.288C78.7529 45.6743 78.6864 44.999 78.8159 44.3476C78.9455 43.6961 79.2654 43.0977 79.7351 42.628C80.2048 42.1583 80.8032 41.8384 81.4547 41.7088C82.1062 41.5792 82.7814 41.6457 83.3951 41.8999C84.0088 42.1541 84.5333 42.5846 84.9024 43.1369C85.2714 43.6892 85.4684 44.3385 85.4684 45.0028C85.4673 45.8932 85.1132 46.7468 84.4836 47.3764C83.8539 48.006 83.0003 48.3602 82.1099 48.3612Z" fill="#AAA6C2"/>
<path d="M59.6777 35.818L45.6152 27.6992C45.4282 27.5912 45.216 27.5344 45 27.5344C44.784 27.5344 44.5718 27.5912 44.3848 27.6992L30.3223 35.818C30.1352 35.926 29.9798 36.0814 29.8718 36.2685C29.7639 36.4556 29.707 36.6678 29.707 36.8838V53.1218C29.707 53.3378 29.7639 53.55 29.8718 53.7371C29.9798 53.9242 30.1352 54.0795 30.3223 54.1875L44.3848 62.3063C44.5718 62.4143 44.784 62.4712 45 62.4712C45.216 62.4712 45.4282 62.4143 45.6152 62.3063L59.6777 54.1875C59.8648 54.0795 60.0202 53.9242 60.1282 53.7371C60.2362 53.55 60.293 53.3378 60.293 53.1218V36.8838C60.293 36.6678 60.2362 36.4556 60.1282 36.2685C60.0202 36.0814 59.8648 35.926 59.6777 35.818ZM45 30.1856L49.4314 32.744L37.8308 39.4412L33.3993 36.8827L45 30.1856ZM43.7695 59.1096L32.168 52.4114V39.0139L43.7695 45.7122V59.1096ZM45 43.5809L40.2917 40.8626L51.8924 34.1653L56.6016 36.8831L45 43.5809ZM57.832 52.4114L46.2305 59.1096V45.7122L57.832 39.0139V52.4114Z" fill="#AAA6C2"/>
</svg>
