<svg width="90" height="91" viewBox="0 0 90 91" fill="none" xmlns="http://www.w3.org/2000/svg">
<path d="M33.2578 70.4562C30.3499 70.4562 27.9843 72.8218 27.9843 75.7297C27.9843 78.6375 30.3499 81.0031 33.2578 81.0031C36.1656 81.0031 38.5312 78.6375 38.5312 75.7297C38.5312 72.8218 36.1656 70.4562 33.2578 70.4562ZM33.2578 78.8938C31.5132 78.8938 30.0937 77.4743 30.0937 75.7297C30.0937 73.9851 31.5132 72.5656 33.2578 72.5656C35.0024 72.5656 36.4218 73.9851 36.4218 75.7297C36.4218 77.4743 35.0024 78.8938 33.2578 78.8938Z" fill="white"/>
<path d="M33.2578 76.7844C33.8403 76.7844 34.3125 76.3122 34.3125 75.7297C34.3125 75.1472 33.8403 74.675 33.2578 74.675C32.6753 74.675 32.2031 75.1472 32.2031 75.7297C32.2031 76.3122 32.6753 76.7844 33.2578 76.7844Z" fill="white"/>
<path d="M69.3985 76.7844C69.981 76.7844 70.4532 76.3122 70.4532 75.7297C70.4532 75.1472 69.981 74.675 69.3985 74.675C68.816 74.675 68.3438 75.1472 68.3438 75.7297C68.3438 76.3122 68.816 76.7844 69.3985 76.7844Z" fill="white"/>
<path d="M69.3985 70.4562C66.4906 70.4562 64.125 72.8218 64.125 75.7297C64.125 78.6375 66.4906 81.0031 69.3985 81.0031C72.3063 81.0031 74.6719 78.6375 74.6719 75.7297C74.6719 72.8218 72.3063 70.4562 69.3985 70.4562ZM69.3985 78.8938C67.6539 78.8938 66.2344 77.4743 66.2344 75.7297C66.2344 73.9851 67.6539 72.5656 69.3985 72.5656C71.1431 72.5656 72.5626 73.9851 72.5626 75.7297C72.5626 77.4743 71.1431 78.8938 69.3985 78.8938Z" fill="white"/>
<path d="M26.4159 60.0436L34.0929 55.6906H51.3282C53.8748 55.6906 56.0057 53.876 56.4958 51.4719H67.48C70.8553 51.4719 73.7965 49.1881 74.6327 45.9182L80.9673 21.1473C81.0479 20.8316 80.9783 20.4965 80.7784 20.2391C80.5786 19.9818 80.2712 19.8312 79.9455 19.8312H28.1619L27.624 17.7281C26.312 12.5909 21.6895 9.00302 16.3828 9.00302H12.1641C10.4195 9.00302 9 10.4225 9 12.1671C9 13.9117 10.4195 15.3312 12.1641 15.3312H16.3828C18.7955 15.3312 20.8968 16.961 21.4929 19.295L29.5935 50.9673L23.2963 54.5378C20.9837 55.847 19.5469 58.3095 19.5469 60.9641C19.5469 65.0349 22.8589 68.3469 26.9297 68.3469H73.6174C75.362 68.3469 76.7814 66.9275 76.7814 65.1829C76.7814 63.4383 75.362 62.0188 73.6174 62.0188H26.9297C26.3481 62.0188 25.875 61.5457 25.875 60.9641C25.875 60.5851 26.082 60.2326 26.4159 60.0436ZM65.5093 39.5187H59.028L59.4235 31.7843H66.6959L65.5093 39.5187ZM68.8299 31.7843H76.0699L74.092 39.5187H67.6433L68.8299 31.7843ZM65.1856 41.6281L63.999 49.3625H58.5247L58.9202 41.6281H65.1856ZM56.9158 39.5187H50.4236L50.0279 31.7843H57.3113L56.9158 39.5187ZM59.5313 29.675L59.9268 21.9406H68.2061L67.0195 29.675H59.5313ZM57.4191 29.675H49.9199L49.5242 21.9406H57.8146L57.4191 29.675ZM47.8078 29.675H43.6331C43.0505 29.675 42.5784 30.147 42.5784 30.7296C42.5784 31.3123 43.0505 31.7843 43.6331 31.7843H47.9157L48.3114 39.5187H41.8303L39.1326 21.9406H47.412L47.8078 29.675ZM39.6963 39.5187H33.1971L31.219 31.7843H38.5093L39.6963 39.5187ZM40.02 41.6281L41.207 49.3625H35.7149L33.7367 41.6281H40.02ZM43.341 49.3625L42.154 41.6281H48.4194L48.8151 49.3625H43.341ZM50.9273 49.3625L50.5316 41.6281H56.808L56.4125 49.3625H50.9273ZM72.5891 45.3956C71.9919 47.7311 69.8909 49.3625 67.48 49.3625H66.133L67.3196 41.6281H73.5524L72.5891 45.3956ZM76.6093 29.675H69.1536L70.3402 21.9406H78.5872L76.6093 29.675ZM36.9987 21.9406L38.1857 29.675H30.6797L28.7015 21.9406H36.9987ZM16.3828 13.2218H12.1641C11.5824 13.2218 11.1094 12.7487 11.1094 12.1671C11.1094 11.5855 11.5824 11.1124 12.1641 11.1124H16.3828C18.5998 11.1124 20.6697 11.879 22.3085 13.1872L20.8048 14.691C19.5612 13.7619 18.0239 13.2218 16.3828 13.2218V13.2218ZM26.9297 64.1282H73.6174C74.199 64.1282 74.672 64.6012 74.672 65.1829C74.672 65.7645 74.199 66.2375 73.6174 66.2375H26.9297C24.0219 66.2375 21.6563 63.8719 21.6563 60.9641C21.6563 59.068 22.683 57.309 24.3362 56.373L31.3352 52.4045C31.7492 52.1697 31.9547 51.6868 31.8367 51.2256L23.5364 18.7727C23.2913 17.8128 22.8634 16.9389 22.2971 16.1821L23.8012 14.678C24.6221 15.7048 25.2389 16.9131 25.5803 18.2504L33.8742 50.6786C33.9936 51.1454 34.4141 51.472 34.896 51.472H54.3116C53.8762 52.6997 52.7033 53.5814 51.3282 53.5814H33.8148C33.6324 53.5814 33.4532 53.6287 33.2946 53.7187L25.3761 58.2084C24.3829 58.7703 23.7657 59.8264 23.7657 60.9641C23.7657 62.7087 25.1851 64.1282 26.9297 64.1282V64.1282Z" fill="white"/>
</svg>
