<svg width="90" height="91" viewBox="0 0 90 91" fill="none" xmlns="http://www.w3.org/2000/svg">
<path fill-rule="evenodd" clip-rule="evenodd" d="M39.319 31.3735L41.7328 33.7873C42.2034 34.2592 42.9686 34.2592 43.4393 33.7873L48.2669 28.9597C48.7376 28.4891 48.7376 27.7239 48.2669 27.2532C47.7962 26.7825 47.031 26.7825 46.5603 27.2532L42.586 31.2275L41.0255 29.667C40.5548 29.1963 39.7896 29.1963 39.319 29.667C38.8483 30.1377 38.8483 30.9029 39.319 31.3735Z" fill="#AAA6C2"/>
<path fill-rule="evenodd" clip-rule="evenodd" d="M39.3191 43.4421L41.7329 45.8558C42.2036 46.3277 42.9687 46.3277 43.4394 45.8558L48.267 41.0283C48.7377 40.5576 48.7377 39.7924 48.267 39.3217C47.7963 38.851 47.0312 38.851 46.5605 39.3217L42.5862 43.296L41.0256 41.7355C40.5549 41.2648 39.7898 41.2648 39.3191 41.7355C38.8484 42.2062 38.8484 42.9714 39.3191 43.4421Z" fill="#AAA6C2"/>
<path fill-rule="evenodd" clip-rule="evenodd" d="M54.6552 29.3131H64.3103C64.9765 29.3131 65.5172 28.7724 65.5172 28.1062C65.5172 27.44 64.9765 26.8993 64.3103 26.8993H54.6552C53.989 26.8993 53.4483 27.44 53.4483 28.1062C53.4483 28.7724 53.989 29.3131 54.6552 29.3131Z" fill="#AAA6C2"/>
<path fill-rule="evenodd" clip-rule="evenodd" d="M54.6552 41.3818H64.3104C64.9766 41.3818 65.5173 40.8411 65.5173 40.1749C65.5173 39.5087 64.9766 38.968 64.3104 38.968H54.6552C53.989 38.968 53.4483 39.5087 53.4483 40.1749C53.4483 40.8411 53.989 41.3818 54.6552 41.3818Z" fill="#AAA6C2"/>
<path fill-rule="evenodd" clip-rule="evenodd" d="M49.8277 34.1402H64.3104C64.9767 34.1402 65.5173 33.5995 65.5173 32.9333C65.5173 32.2671 64.9767 31.7264 64.3104 31.7264H49.8277C49.1615 31.7264 48.6208 32.2671 48.6208 32.9333C48.6208 33.5995 49.1615 34.1402 49.8277 34.1402Z" fill="#AAA6C2"/>
<path fill-rule="evenodd" clip-rule="evenodd" d="M49.8276 46.2097H64.3104C64.9766 46.2097 65.5172 45.669 65.5172 45.0028C65.5172 44.3366 64.9766 43.7959 64.3104 43.7959H49.8276C49.1614 43.7959 48.6207 44.3366 48.6207 45.0028C48.6207 45.669 49.1614 46.2097 49.8276 46.2097Z" fill="#AAA6C2"/>
<path fill-rule="evenodd" clip-rule="evenodd" d="M45 17.2441H59.4827C60.149 17.2441 60.6896 16.7035 60.6896 16.0372C60.6896 15.371 60.149 14.8304 59.4827 14.8304H45C44.3338 14.8304 43.7931 15.371 43.7931 16.0372C43.7931 16.7035 44.3338 17.2441 45 17.2441Z" fill="#AAA6C2"/>
<path fill-rule="evenodd" clip-rule="evenodd" d="M39.1731 19.6579H32.931C30.9312 19.6579 29.3103 21.2788 29.3103 23.2786V48.6235H26.8966V32.9338C26.8966 32.2676 26.3559 31.7269 25.6897 31.7269C25.0234 31.7269 24.4828 32.2676 24.4828 32.9338V48.6235H13.6207C12.66 48.6235 11.7391 49.0048 11.0609 49.6843C10.3814 50.3626 10 51.2835 10 52.2442V76.3821C10 77.3428 10.3814 78.2636 11.0609 78.9419C11.7391 79.6214 12.66 80.0028 13.6207 80.0028H76.3793C78.3791 80.0028 80 78.3819 80 76.3821C80 66.4035 80 28.4297 80 18.4511C80 16.4512 78.3791 14.8304 76.3793 14.8304H65.5172V13.6235C65.5172 12.6628 65.1359 11.7419 64.4564 11.0636C63.7781 10.3842 62.8572 10.0028 61.8966 10.0028C57.2717 10.0028 47.211 10.0028 42.5862 10.0028C41.6255 10.0028 40.7047 10.3842 40.0264 11.0636C39.3469 11.7419 38.9655 12.6628 38.9655 13.6235V14.8304H28.1034C26.1036 14.8304 24.4828 16.4512 24.4828 18.4511V28.1062C24.4828 28.7724 25.0234 29.3131 25.6897 29.3131C26.3559 29.3131 26.8966 28.7724 26.8966 28.1062C26.8966 23.9774 26.8966 20.5776 26.8966 18.4511C26.8966 17.7848 27.4372 17.2442 28.1034 17.2442H38.9655V18.4511C38.9655 18.8662 39.0367 19.2742 39.1731 19.6579ZM38.9655 76.3821V57.0717H31.7241V58.3136C31.7241 58.9835 31.3778 59.605 30.8081 59.9562C30.2384 60.3087 29.5276 60.34 28.929 60.0407L25.6897 58.4211L22.4504 60.0407C21.8517 60.34 21.1409 60.3087 20.5712 59.9562C20.0016 59.605 19.6552 58.9835 19.6552 58.3136V57.0717H12.4138V76.3821C12.4138 76.7019 12.5405 77.0097 12.7674 77.2354C12.9931 77.4623 13.3009 77.589 13.6207 77.589H37.7586C38.0784 77.589 38.3862 77.4623 38.6119 77.2354C38.8388 77.0097 38.9655 76.7019 38.9655 76.3821V76.3821ZM31.7241 48.6235H37.7586C38.7193 48.6235 39.6402 49.0048 40.3185 49.6843C40.9979 50.3626 41.3793 51.2835 41.3793 52.2442V72.7614H59.4828C60.149 72.7614 60.6897 73.3021 60.6897 73.9683C60.6897 74.6345 60.149 75.1752 59.4828 75.1752H41.3793V76.3821C41.3793 76.7973 41.3081 77.2052 41.1717 77.589H76.3793C77.0455 77.589 77.5862 77.0483 77.5862 76.3821V18.4511C77.5862 17.7848 77.0455 17.2442 76.3793 17.2442H65.5172V18.4511C65.5172 18.8662 65.446 19.2742 65.3097 19.6579H71.5517C73.5516 19.6579 75.1724 21.2788 75.1724 23.2786V71.5545C75.1724 73.5543 73.5516 75.1752 71.5517 75.1752H64.3103C63.6441 75.1752 63.1034 74.6345 63.1034 73.9683C63.1034 73.3021 63.6441 72.7614 64.3103 72.7614H71.5517C72.2179 72.7614 72.7586 72.2207 72.7586 71.5545V23.2786C72.7586 22.6124 72.2179 22.0717 71.5517 22.0717H32.931C32.2648 22.0717 31.7241 22.6124 31.7241 23.2786V48.6235ZM29.3103 57.5328L26.5538 56.1545C26.0095 55.8829 25.3698 55.8829 24.8255 56.1545L22.069 57.5328V51.0373H29.3103V57.5328ZM31.7241 51.0373H37.7586C38.0784 51.0373 38.3862 51.164 38.6119 51.3909C38.8388 51.6166 38.9655 51.9243 38.9655 52.2442V54.6579H31.7241V51.0373ZM19.6552 51.0373V54.6579H12.4138V52.2442C12.4138 51.9243 12.5405 51.6166 12.7674 51.3909C12.9931 51.164 13.3009 51.0373 13.6207 51.0373H19.6552ZM63.1034 13.6235V18.4511C63.1034 18.7709 62.9767 19.0786 62.7498 19.3043C62.5241 19.5312 62.2164 19.6579 61.8966 19.6579H42.5862C42.2664 19.6579 41.9586 19.5312 41.7329 19.3043C41.506 19.0786 41.3793 18.7709 41.3793 18.4511V13.6235C41.3793 13.3036 41.506 12.9959 41.7329 12.7702C41.9586 12.5433 42.2664 12.4166 42.5862 12.4166H61.8966C62.2164 12.4166 62.5241 12.5433 62.7498 12.7702C62.9767 12.9959 63.1034 13.3036 63.1034 13.6235Z" fill="#AAA6C2"/>
<path fill-rule="evenodd" clip-rule="evenodd" d="M35.3448 72.7614H30.5172C29.851 72.7614 29.3103 73.3021 29.3103 73.9683C29.3103 74.6345 29.851 75.1752 30.5172 75.1752H35.3448C36.011 75.1752 36.5517 74.6345 36.5517 73.9683C36.5517 73.3021 36.011 72.7614 35.3448 72.7614Z" fill="#AAA6C2"/>
</svg>
