<svg width="90" height="91" viewBox="0 0 90 91" fill="none" xmlns="http://www.w3.org/2000/svg">
<path d="M78.2639 13.0051H11.7361C9.15786 13.0051 7.06052 15.1025 7.06052 17.6806V62.8246C7.06052 65.4027 9.15786 67.5 11.7361 67.5H34.2369L33.3268 74.781H29.556C28.942 74.781 28.4445 75.2787 28.4445 75.8925C28.4445 76.5064 28.942 77.004 29.556 77.004H60.4441C61.058 77.004 61.5556 76.5064 61.5556 75.8925C61.5556 75.2787 61.058 74.781 60.4441 74.781H56.6734L55.7631 67.5H78.2639C80.842 67.5 82.9395 65.4027 82.9395 62.8246V17.6806C82.9395 15.1025 80.8422 13.0051 78.2639 13.0051ZM35.5672 74.781L36.4774 67.5H40.5682L40.9695 69.105C41.4328 70.958 43.0903 72.2519 45.0002 72.2519C46.91 72.2519 48.5675 70.958 49.0308 69.105L49.4321 67.5H53.5229L54.4329 74.781H35.5672ZM42.8595 67.5H47.1403L46.8739 68.5659C46.6585 69.4274 45.888 70.0289 44.9999 70.0289C44.1117 70.0289 43.3413 69.4272 43.1259 68.5659L42.8595 67.5ZM80.7165 62.8246C80.7165 64.1769 79.6162 65.277 78.2639 65.277H11.7361C10.3838 65.277 9.28353 64.1769 9.28353 62.8246V17.6806C9.28353 16.3282 10.3838 15.2281 11.7361 15.2281H78.2639C79.6162 15.2281 80.7165 16.3282 80.7165 17.6806V62.8246Z" fill="#AAA6C2"/>
<path d="M69.9478 17.7562H12.9238C12.3098 17.7562 11.8123 18.2537 11.8123 18.8677V61.6356C11.8123 62.2496 12.3098 62.7471 12.9238 62.7471H15.2999C15.9139 62.7471 16.4114 62.2496 16.4114 61.6356C16.4116 61.0217 15.9139 60.5241 15.3001 60.5241H14.0355V19.9792H69.9478C70.5618 19.9792 71.0593 19.4815 71.0593 18.8677C71.0593 18.2537 70.5618 17.7562 69.9478 17.7562Z" fill="#AAA6C2"/>
<path d="M77.076 17.7562H74.6999C74.0859 17.7562 73.5884 18.2537 73.5884 18.8677C73.5884 19.4815 74.0859 19.9792 74.6999 19.9792H75.9645V60.5241H20.052C19.438 60.5241 18.9405 61.0217 18.9405 61.6356C18.9405 62.2496 19.438 62.7471 20.052 62.7471H77.0758C77.6898 62.7471 78.1873 62.2496 78.1873 61.6356V18.8677C78.1875 18.2537 77.6898 17.7562 77.076 17.7562Z" fill="#AAA6C2"/>
<path d="M60.1312 30.0629C59.9314 29.8075 59.6301 29.6522 59.3065 29.6375L33.1706 28.4494C33.1501 28.4485 33.1301 28.4481 33.1095 28.4484C32.9548 27.9405 32.6279 27.5 32.1854 27.2048L28.9847 25.071C28.474 24.7306 27.7838 24.8686 27.4434 25.3794C27.1029 25.8903 27.2409 26.5803 27.7516 26.9207L30.9522 29.0542C30.9673 29.0643 30.9784 29.0796 30.9834 29.097L35.0603 43.366C35.1875 43.8109 35.3967 44.2107 35.6654 44.5561L34.1738 47.5393C33.8147 48.2574 33.8523 49.0937 34.2744 49.7766C34.4275 50.0242 34.6216 50.2351 34.8447 50.4041C34.5527 50.9137 34.3848 51.5033 34.3848 52.1317C34.3848 54.0547 35.9494 55.6191 37.8723 55.6191C39.7952 55.6191 41.3597 54.0546 41.3597 52.1317C41.3597 51.6857 41.2747 51.2595 41.1214 50.8672H51.255C51.1018 51.2595 51.0167 51.6857 51.0167 52.1317C51.0167 54.0547 52.5812 55.6191 54.5042 55.6191C56.4271 55.6191 57.9916 54.0546 57.9916 52.1317C57.9916 51.5738 57.8593 51.0467 57.6254 50.5787C57.8498 50.3753 57.9916 50.0825 57.9916 49.7557C57.9916 49.1418 57.4941 48.6442 56.8801 48.6442H36.2301C36.2142 48.6442 36.1874 48.6442 36.165 48.6079C36.1426 48.5717 36.1546 48.5479 36.1617 48.5335L37.5359 45.7854C37.8155 45.8573 38.1069 45.8961 38.4051 45.8961C38.5424 45.8961 38.6812 45.8879 38.8208 45.8716L54.4391 44.0342C56.4563 43.7968 58.0792 42.2994 58.4776 40.3076L60.3458 30.9659C60.4094 30.648 60.331 30.3182 60.1312 30.0629ZM54.5039 50.8675C55.2011 50.8675 55.7683 51.4348 55.7683 52.1319C55.7683 52.8292 55.2011 53.3964 54.5039 53.3964C53.8066 53.3964 53.2394 52.8292 53.2394 52.1319C53.2394 51.4347 53.8066 50.8675 54.5039 50.8675ZM37.872 50.8675C38.5693 50.8675 39.1364 51.4347 39.1364 52.1319C39.1364 52.8292 38.5693 53.3964 37.872 53.3964C37.1747 53.3964 36.6075 52.8292 36.6075 52.1319C36.6075 51.4347 37.1747 50.8675 37.872 50.8675ZM35.1463 35.5764L33.7533 30.7013L38.1971 30.9033L38.9676 35.5764H35.1463ZM38.5611 43.6639C37.9413 43.7368 37.3685 43.3546 37.1975 42.7554L35.7815 37.7994H39.3341L40.268 43.4631L38.5611 43.6639ZM45.0765 42.8974L42.4782 43.2031L41.5874 37.7996H45.0765V42.8974ZM45.0765 35.5764H41.2207L40.4673 31.0066L45.0765 31.2162V35.5764ZM50.7055 42.2351L47.2995 42.6358V37.7994H51.1069L50.7055 42.2351ZM51.3082 35.5764H47.2995V31.3171L51.6757 31.516L51.3082 35.5764ZM56.2975 39.8719C56.0886 40.9164 55.2373 41.702 54.1793 41.8265L52.9615 41.9698L53.339 37.7996H56.7119L56.2975 39.8719ZM57.1567 35.5764H53.5404L53.8988 31.6171L57.912 31.7995L57.1567 35.5764Z" fill="#AAA6C2"/>
</svg>
