<svg width="90" height="91" viewBox="0 0 90 91" fill="none" xmlns="http://www.w3.org/2000/svg">
<path d="M80.8068 79.618H79.2468L76.0326 71.046V66.6263L79.5834 51.2414C79.6646 50.8869 79.581 50.5157 79.3543 50.2305C79.1287 49.9452 78.7837 49.7793 78.4209 49.7793H65.2919C64.7357 49.7793 64.2535 50.1625 64.1282 50.7043L60.7612 65.2955H56.937C54.9629 65.2955 53.3564 66.902 53.3564 68.8761V71.1188L51.2319 79.618H49.7757V77.2309C49.7757 76.263 49.2924 75.4514 48.5822 75.0742V62.9084H56.937C58.9112 62.9084 60.5177 61.3018 60.5177 59.3277C60.5177 57.3536 58.9112 55.7471 56.937 55.7471H46.1951V29.4962C58.1771 29.5654 63.8071 30.6479 63.8656 30.6599C63.942 30.6754 64.0207 30.6837 64.0971 30.6837H64.1007C64.2356 30.6837 64.3669 30.6527 64.4922 30.6085C64.5089 30.6026 64.5256 30.605 64.5423 30.599C69.1721 28.749 80.4941 30.6467 80.6087 30.667C81.0897 30.7494 81.585 30.5238 81.8368 30.0965C82.0887 29.6692 82.0505 29.1309 81.7414 28.7442C72.9676 17.7779 51.1483 12.8056 46.1963 11.7982V9.19868C46.1963 8.53864 45.6628 8.00513 45.0027 8.00513C44.3427 8.00513 43.8092 8.53864 43.8092 9.19868V11.797C38.8572 12.8044 17.0379 17.7767 8.26412 28.743C7.95499 29.1297 7.9168 29.668 8.16864 30.0953C8.42048 30.5226 8.91461 30.7506 9.3968 30.6658C9.51138 30.6455 20.8322 28.7478 25.4632 30.5978C25.4727 30.6014 25.4834 30.6002 25.493 30.6038C25.6088 30.6467 25.7317 30.6682 25.857 30.6742C25.8737 30.6742 25.8893 30.6837 25.906 30.6837C25.9465 30.6837 25.9847 30.6706 26.0241 30.6658C26.0623 30.6623 26.1005 30.6682 26.1387 30.6599C26.196 30.6491 31.826 29.5666 43.8092 29.4962V55.7471H33.0673C31.0931 55.7471 29.4866 57.3536 29.4866 59.3277C29.4866 61.3018 31.0931 62.9084 33.0673 62.9084H41.4221V75.0742C40.7119 75.4514 40.2285 76.2618 40.2285 77.2309V79.618H38.7724L36.6479 71.1188V68.8761C36.6479 66.902 35.0414 65.2955 33.0673 65.2955H29.2431L25.8761 50.7043C25.752 50.1625 25.2686 49.7793 24.7124 49.7793H11.581C11.217 49.7793 10.8732 49.9452 10.6476 50.2305C10.4209 50.5145 10.3361 50.8869 10.4185 51.2414L13.9693 66.6263V71.046L10.7551 79.618H9.19509C8.53506 79.618 8.00154 80.1516 8.00154 80.8116C8.00154 81.4716 8.53506 82.0051 9.19509 82.0051H80.8068C81.4668 82.0051 82.0004 81.4716 82.0004 80.8116C82.0004 80.1516 81.4668 79.618 80.8068 79.618ZM64.5996 28.0687C61.0774 22.5139 56.6315 18.5442 52.8981 15.9124C60.347 18.0106 71.1761 21.8682 77.6355 27.8467C74.0012 27.4313 68.2674 27.0363 64.5996 28.0687ZM12.364 27.8467C18.8234 21.8694 29.6525 18.0106 37.1014 15.9124C33.368 18.5442 28.9221 22.5151 25.3999 28.0687C21.7309 27.0363 15.9983 27.4313 12.364 27.8455V27.8467ZM45.0004 14.0815C47.0294 15.0017 55.568 19.2472 61.6563 27.9243C58.713 27.5686 53.2764 27.1031 45.0004 27.1031C36.7243 27.1031 31.2877 27.5698 28.3444 27.9243C34.4339 19.2472 42.9713 15.0029 45.0004 14.0815ZM72.0855 79.618L69.4001 72.4567H74.0107L76.6962 79.618H72.0855ZM66.8494 72.4567L69.5349 79.618H60.8507L62.641 72.4567H66.8494ZM66.2395 52.1664H76.9182L73.8878 65.2955H63.2091L66.2395 52.1664ZM55.7411 68.8761C55.7411 68.2173 56.2758 67.6825 56.9346 67.6825H73.6443V70.0696H55.7411V68.8761ZM55.4785 72.4567H60.1799L58.3896 79.618H53.6882L55.4785 72.4567ZM31.8701 59.3277C31.8701 58.6689 32.4048 58.1342 33.0637 58.1342H56.9346C57.5935 58.1342 58.1282 58.6689 58.1282 59.3277C58.1282 59.9865 57.5935 60.5213 56.9346 60.5213H33.0649C32.406 60.5213 31.8713 59.9865 31.8713 59.3277H31.8701ZM46.1927 62.9084V74.8438H43.8056V62.9084H46.1927ZM42.6121 77.2309H47.3863V79.618H42.6121V77.2309ZM31.6075 79.618L29.8172 72.4567H34.5186L36.3089 79.618H31.6075ZM27.3573 72.4567L29.1476 79.618H20.4634L23.1489 72.4567H27.3573ZM34.256 68.8761V70.0696H16.3552V67.6825H33.0649C33.7237 67.6825 34.2584 68.2173 34.2584 68.8761H34.256ZM23.7576 52.1664L26.788 65.2955H16.1117L13.0813 52.1664H23.76H23.7576ZM15.9864 72.4567H20.5971L17.9116 79.618H13.3009L15.9864 72.4567Z" fill="#AAA6C2"/>
</svg>
