<svg width="1600" height="2200" viewBox="0 0 1600 2200" fill="none" xmlns="http://www.w3.org/2000/svg">
<rect width="1600" height="2200" fill="url(#paint0_linear_404_11475)"/>
<path d="M613.5 438.5C393.887 543.572 46.5 330.236 -120 0H1663.94L1689.5 759C1468.9 1019 1012.08 1013.55 706 1135C574.542 1187.16 841.5 1397 1330.36 1322.67C1698.7 1266.67 1890 1492.79 1890 1635.03C1890 1798.06 1843.98 1909.04 1790.5 2001C1721 2120.5 1544.56 2166 1217.5 2166C1014.5 2166 806.434 2084.98 591 2001C352.757 1908.13 181.84 1939.1 -23.476 2001L22 1910C308.5 1765.5 490.998 1856.74 654.5 1899.5C893.5 1962 1321 2108 1468.9 1883.12C1559.04 1746.06 1308.86 1688.43 925.26 1648.26C618.384 1616.13 164.904 1417.81 -23.476 1322.67L-37 759C320.5 819.3 772 893.369 1034 803.685C1154.53 762.428 1368 655.762 1368 496.061C1368 252.035 1049.29 230 613.5 438.5Z" fill="url(#paint1_linear_404_11475)"/>
<defs>
<linearGradient id="paint0_linear_404_11475" x1="800" y1="0" x2="800" y2="2200" gradientUnits="userSpaceOnUse">
<stop stop-color="#FFFAF3"/>
<stop offset="1" stop-color="#FFFAF3" stop-opacity="0"/>
</linearGradient>
<linearGradient id="paint1_linear_404_11475" x1="885" y1="0" x2="885" y2="2166" gradientUnits="userSpaceOnUse">
<stop stop-color="#FFF4E7"/>
<stop offset="1" stop-color="#FFF4E7" stop-opacity="0.44"/>
</linearGradient>
</defs>
</svg>
