<svg width="40" height="40" viewBox="0 0 40 40" fill="none" xmlns="http://www.w3.org/2000/svg">
<path d="M29.9745 30.3906H2.9943C1.98937 30.3906 1.17188 29.5731 1.17188 28.5682V14.6354C1.145 13.8595 0.0266406 13.8601 0 14.6354V28.5681C0 30.2193 1.3432 31.5625 2.9943 31.5625H14.8828V36.0156H12.5778C12.0826 36.0156 11.6797 36.4185 11.6797 36.9137V39.1019C11.6797 39.5972 12.0826 40.0001 12.5778 40.0001H27.4223C27.9175 40.0001 28.3204 39.5972 28.3204 39.1019V36.9137C28.3204 36.4185 27.9175 36.0156 27.4223 36.0156H25.1172V31.5625H29.9745C30.7503 31.5356 30.7498 30.4172 29.9745 30.3906ZM27.1484 38.8281H12.8516V37.1875H27.1484V38.8281ZM20.9766 36.0156H19.0234V34.8828C19.0727 33.5887 20.9278 33.5897 20.9766 34.8828V36.0156ZM23.9453 36.0156H22.1484V34.8828C22.0401 32.0358 17.9589 32.0379 17.8516 34.8828V36.0156H16.0547V31.5625H23.9453V36.0156Z" fill="white"/>
<path d="M37.0057 6.48438H35.2479V1.52344C35.2479 0.683438 34.5645 0 33.7245 0H26.2245C25.3845 0 24.701 0.683438 24.701 1.52344V6.48438H21.9396V5.1975C21.9396 4.52977 21.3964 3.98656 20.7287 3.98656H7.75992C7.09219 3.98656 6.54898 4.52977 6.54898 5.1975V6.48438H2.9943C1.3432 6.48438 0 7.82758 0 9.47867V11.9791C0.026875 12.755 1.14523 12.7544 1.17188 11.9791V9.47867C1.17188 8.47375 1.98937 7.65625 2.9943 7.65625H6.54898V8.82812H3.85969C3.02383 8.82812 2.34375 9.5082 2.34375 10.3441V27.7028C2.34375 28.5387 3.02383 29.2188 3.85969 29.2188H36.1403C36.9762 29.2188 37.6562 28.5387 37.6562 27.7028V10.3441C37.6562 9.5082 36.9762 8.82812 36.1403 8.82812H35.2479V7.65625H37.0057C38.0106 7.65625 38.8281 8.47375 38.8281 9.47867V28.5682C38.8281 29.5731 38.0106 30.3906 37.0057 30.3906H32.8386C32.0627 30.4175 32.0634 31.5359 32.8386 31.5625H37.0057C38.6568 31.5625 40 30.2193 40 28.5682V9.47867C40 7.82758 38.6568 6.48438 37.0057 6.48438ZM25.8729 1.52344C25.8729 1.32961 26.0306 1.17188 26.2245 1.17188H33.7245C33.9183 1.17188 34.076 1.32961 34.076 1.52344V12.1094C34.076 12.3032 33.9183 12.4609 33.7245 12.4609H26.2245C26.0306 12.4609 25.8729 12.3032 25.8729 12.1094V1.52344ZM24.701 7.65625V8.82812H21.9396V7.65625H24.701ZM20.7678 12.9073H18.0334V8.76672H20.7678V12.9073ZM7.76 5.15844H20.7288C20.7503 5.15844 20.7678 5.17594 20.7678 5.1975V7.59484H17.76C17.2646 7.59484 16.8616 7.99789 16.8616 8.49328V13.1808C16.8616 13.6762 17.2646 14.0792 17.76 14.0792H20.7678V18.1663C20.7678 18.1878 20.7503 18.2053 20.7288 18.2053H7.76C7.73844 18.2053 7.72094 18.1878 7.72094 18.1663V14.0792H14.3225C14.8179 14.0792 15.2209 13.6762 15.2209 13.1808V8.49328C15.2209 7.99789 14.8179 7.59484 14.3225 7.59484H7.72094V5.1975C7.72094 5.17594 7.73844 5.15844 7.76 5.15844ZM7.72094 8.76672H14.0491V12.9073H7.72094V8.76672ZM36.1403 10C36.33 10 36.4844 10.1544 36.4844 10.3441V27.7028C36.4844 27.8925 36.33 28.0469 36.1403 28.0469H3.85969C3.67 28.0469 3.51562 27.8925 3.51562 27.7028V10.3441C3.51562 10.1544 3.67 10 3.85969 10H6.54906V18.1663C6.54906 18.834 7.09227 19.3772 7.76 19.3772H20.7288C21.3965 19.3772 21.9397 18.834 21.9397 18.1663V10H24.7011V12.1094C24.7011 12.9494 25.3845 13.6328 26.2245 13.6328H33.7245C34.5645 13.6328 35.248 12.9494 35.248 12.1094V10H36.1403Z" fill="white"/>
<path d="M27.1354 6.59073L29.2188 8.46573C29.3357 8.5712 29.4914 8.62502 29.6478 8.61495C29.8051 8.60502 29.9517 8.53206 30.0546 8.41268L32.8671 5.14877C33.0784 4.90362 33.0509 4.53362 32.8057 4.32237C32.5605 4.11112 32.1906 4.13862 31.9793 4.38377L29.5576 7.19416L27.9193 5.71963C27.6788 5.50315 27.3083 5.52268 27.0918 5.76323C26.8753 6.00377 26.8949 6.37424 27.1354 6.59073Z" fill="white"/>
<path d="M26.8668 17.5914H30.0917C30.8675 17.5646 30.8669 16.4462 30.0917 16.4196H26.8668C26.091 16.4464 26.0915 17.5648 26.8668 17.5914Z" fill="white"/>
<path d="M29.0088 22.9561H26.8668C26.091 22.9829 26.0916 24.1013 26.8668 24.1279H29.0088C29.7847 24.1011 29.7841 22.9827 29.0088 22.9561Z" fill="white"/>
<path d="M33.0821 20.8118H26.8668C26.091 20.8386 26.0916 21.957 26.8668 21.9836H33.0821C33.8578 21.9568 33.8573 20.8384 33.0821 20.8118Z" fill="white"/>
<path d="M33.0821 18.6676H26.8668C26.091 18.6945 26.0916 19.8128 26.8668 19.8395H33.0821C33.8578 19.8126 33.8573 18.6942 33.0821 18.6676Z" fill="white"/>
<path d="M17.2131 21.2369H11.2756C8.53208 21.3413 8.53419 25.2741 11.2756 25.3776H17.2131C19.9565 25.2732 19.9544 21.3404 17.2131 21.2369ZM17.2131 24.2057H11.2756C10.085 24.1604 10.0859 22.4537 11.2756 22.4088H17.2131C18.4036 22.4541 18.4027 24.1608 17.2131 24.2057Z" fill="white"/>
</svg>
