<svg width="40" height="40" viewBox="0 0 40 40" fill="none" xmlns="http://www.w3.org/2000/svg">
<path d="M39.9401 34.0361L39.2172 32.1581L38.1427 28.7195C38.0462 28.4108 37.7181 28.2382 37.4087 28.3351C37.0999 28.4316 36.9277 28.7602 37.0242 29.0691L37.4249 30.3515H23.1922L16.9165 16.7377L31.4256 11.1531L36.2786 26.683C36.375 26.9918 36.7033 27.1644 37.0126 27.0674C37.3214 26.9709 37.4936 26.6423 37.3971 26.3334L32.4571 10.5251C32.3833 10.289 32.2132 10.0919 31.9905 9.98423C31.7676 9.87649 31.5077 9.86571 31.2768 9.95469L18.9235 14.7095L22.0125 5.11884C22.0886 4.88305 22.0632 4.62368 21.943 4.40719C21.8228 4.19063 21.616 4.03204 21.3771 3.97243L18.9185 3.35219C18.6049 3.27305 18.2862 3.46329 18.2071 3.77704C18.128 4.09087 18.3181 4.40938 18.6319 4.4886L20.8076 5.03735L17.5182 15.2506L16.2232 15.749C15.9924 15.8379 15.8066 16.0203 15.7135 16.2495C15.6205 16.4788 15.6265 16.739 15.7301 16.9635L15.9371 17.4126H2.74721L5.73377 1.23469L16.2292 3.88227C16.543 3.96149 16.8616 3.77126 16.9406 3.45743C17.0198 3.1436 16.8296 2.82508 16.5159 2.74587L5.73627 0.0267257C5.49565 -0.0335086 5.23807 0.0091476 5.02971 0.143835C4.8219 0.278132 4.6776 0.494773 4.63424 0.735632L0.519633 23.0239L0.0276798 24.9745C-0.0310702 25.2073 0.00439852 25.4488 0.127445 25.6549C0.250492 25.8609 0.44643 26.0067 0.679086 26.0654L1.61901 26.3025C1.93268 26.3816 2.25135 26.1915 2.33041 25.8777C2.40955 25.5638 2.2194 25.2453 1.90565 25.1661L1.23088 24.9959L1.51737 23.8598L13.7892 26.955L13.5028 28.0911L4.34495 25.7813C4.0312 25.7021 3.71268 25.8924 3.63354 26.2062C3.5544 26.52 3.74463 26.8384 4.05838 26.9177L13.481 29.2942C13.5545 29.3127 13.6288 29.3219 13.7026 29.3219C13.8627 29.3219 14.0205 29.2788 14.1615 29.1945C14.3675 29.0715 14.5133 28.8756 14.5721 28.6428L15.0627 26.6973L17.1825 20.1141L25.2186 37.5466L25.9412 39.4241C26.0785 39.7806 26.4197 39.9998 26.7808 39.9998C26.8878 39.9998 26.9967 39.9805 27.1024 39.9398L39.4242 35.197H39.4243C39.8866 35.0193 40.1179 34.4984 39.9401 34.0361ZM37.7911 31.5234L37.9405 32.0014L26.0606 36.5739L23.7324 31.5234H37.7911ZM16.4442 18.5843L14.1117 25.8277L1.76846 22.7145L2.53088 18.5843H16.4442ZM26.9367 38.7481L26.5157 37.6545L38.3272 33.1082L38.7482 34.2019L26.9367 38.7481Z" fill="white"/>
<path d="M11.2098 8.99525C10.8471 9.62572 10.7573 10.4835 10.981 11.1814C11.1598 11.7395 11.5287 12.1697 12.0198 12.3932C12.0376 12.4013 12.0558 12.4085 12.0743 12.4148C12.2661 12.4799 12.4658 12.5118 12.6683 12.5118C13.1278 12.5118 13.6014 12.347 14.0279 12.0295C14.7248 11.511 15.1587 10.6906 15.135 9.93775C15.1226 9.02611 14.466 8.13205 13.5711 7.8097C12.604 7.46134 11.6697 8.1797 11.2098 8.99525ZM13.9634 9.95673C13.9634 9.96173 13.9635 9.96681 13.9637 9.97181C13.9768 10.3417 13.7156 10.8013 13.3284 11.0895C13.1896 11.1928 12.8341 11.4167 12.4785 11.3138C12.3004 11.2232 12.1721 11.0585 12.0969 10.8238C11.973 10.4371 12.0263 9.92494 12.2264 9.57814C12.2275 9.57627 12.2286 9.57439 12.2297 9.57252C12.4557 9.17072 12.889 8.80892 13.1741 8.91236C13.6052 9.06759 13.9593 9.53611 13.9634 9.95673Z" fill="white"/>
<path d="M22.9106 20.9553C22.4836 21.6971 22.3779 22.7067 22.6412 23.5284C22.8518 24.1856 23.2674 24.6714 23.843 24.9334C23.8609 24.9415 23.8791 24.9487 23.8976 24.955C24.1186 25.0299 24.3488 25.0667 24.5827 25.0667C25.1177 25.0667 25.6709 24.8737 26.1702 24.5021C26.9909 23.8914 27.5018 22.9287 27.4737 22.0478C27.4598 21.0004 26.6748 19.9326 25.6446 19.5615C24.5314 19.1608 23.4476 20.0025 22.9106 20.9553ZM26.3018 22.0667C26.3019 22.0717 26.302 22.0768 26.3022 22.0818C26.3198 22.5758 25.9778 23.1844 25.4705 23.5618C25.0767 23.855 24.6526 23.9606 24.3015 23.8539C24.0451 23.7278 23.862 23.4981 23.7571 23.1707C23.5922 22.6561 23.6605 22 23.9272 21.5381C23.9283 21.5362 23.9293 21.5343 23.9304 21.5325C24.1837 21.0822 24.7771 20.4941 25.2474 20.6641C25.8234 20.8715 26.2964 21.5007 26.3018 22.0667Z" fill="white"/>
<path d="M10.3631 30.8097L8.81283 30.9044C8.58181 30.9197 8.35666 30.8168 8.21299 30.6319L7.25666 29.4008C7.00299 29.0741 6.59431 28.9236 6.18994 29.007C5.78478 29.0908 5.46885 29.3925 5.36541 29.7942L4.97588 31.3068C4.91713 31.5351 4.75103 31.7193 4.53166 31.7998L3.07236 32.3345C2.68549 32.4762 2.41705 32.8193 2.37189 33.2298C2.32666 33.6408 2.51431 34.0346 2.86166 34.2574L4.17119 35.0977C4.36861 35.2243 4.49135 35.441 4.49963 35.6773L4.55408 37.2388C4.56853 37.6536 4.81221 38.0166 5.18994 38.1863C5.33236 38.2501 5.48252 38.2815 5.6315 38.2815C5.87627 38.2815 6.11775 38.1969 6.31533 38.0332L7.51416 37.0397C7.69361 36.8909 7.934 36.8407 8.15744 36.9049L9.65033 37.3354C10.046 37.4496 10.4642 37.3311 10.742 37.0266C11.0212 36.7204 11.1008 36.2903 10.9498 35.9041L10.3813 34.4501C10.2951 34.2297 10.3221 33.9809 10.4536 33.7847L11.3218 32.4892C11.5524 32.1453 11.5675 31.7084 11.3616 31.3491C11.1565 30.9914 10.7738 30.7843 10.3631 30.8097ZM9.48017 33.1324C9.13525 33.6472 9.06408 34.2993 9.28986 34.8768L9.79002 36.1561L8.48205 35.779C7.88611 35.607 7.24463 35.7413 6.76635 36.1375L5.71838 37.0058L5.67064 35.6365C5.649 35.0158 5.32486 34.4456 4.80385 34.1113L3.64994 33.3708L4.93471 32.9001C5.51611 32.6872 5.95572 32.2008 6.11072 31.599L6.45174 30.2748L7.28752 31.3508C7.66877 31.8416 8.2658 32.1112 8.88431 32.0743L10.2449 31.9911L9.48017 33.1324Z" fill="white"/>
<path d="M30.6575 8.12396L32.2133 8.0624C32.4447 8.05224 32.6678 8.15904 32.8062 8.34576L33.7313 9.59412C33.937 9.87178 34.2548 10.029 34.5914 10.029C34.6558 10.029 34.7211 10.0233 34.7862 10.0114C35.1941 9.93764 35.5183 9.6442 35.6329 9.2456L36.0639 7.7449C36.1292 7.51748 36.3016 7.33623 36.5251 7.26014L38.0015 6.75771C38.3936 6.62435 38.6708 6.28646 38.7253 5.87584C38.7794 5.46709 38.6008 5.07053 38.2592 4.84115L36.9698 3.97537C36.7768 3.84568 36.6605 3.62857 36.6587 3.39451L36.6461 1.83568C36.6427 1.42217 36.4095 1.05404 36.0374 0.875136C35.6645 0.695761 35.2303 0.743808 34.9043 1.00014L33.6766 1.96568C33.4912 2.11139 33.2476 2.15701 33.0241 2.08779L31.54 1.62685C31.1466 1.50467 30.725 1.61428 30.4398 1.91303C30.1544 2.21217 30.0644 2.63904 30.2051 3.02701L30.7356 4.48959C30.8156 4.71006 30.7817 4.95685 30.6448 5.14959L29.7401 6.42349C29.4998 6.76185 29.473 7.19826 29.6702 7.5624C29.8667 7.92514 30.2433 8.13998 30.6575 8.12396ZM31.6002 5.8281C31.9598 5.3217 32.0484 4.67185 31.8373 4.0899L31.3698 2.80107L32.6765 3.20685C33.2676 3.39068 33.9123 3.271 34.4009 2.88685L35.4757 2.04154L35.4867 3.40404C35.4917 4.02537 35.8019 4.60264 36.3164 4.94826L37.4481 5.70826L36.1475 6.15092C35.5608 6.3506 35.1085 6.82568 34.9374 7.42162L34.5583 8.74193L33.7477 7.6481C33.3933 7.16982 32.8348 6.89014 32.2418 6.89014C32.2169 6.89014 32.1919 6.8906 32.1669 6.89162L30.8069 6.94537L31.6002 5.8281Z" fill="white"/>
</svg>
