<svg width="83" height="82" viewBox="0 0 83 82" fill="none" xmlns="http://www.w3.org/2000/svg">
<path d="M39.6113 1.94084C40.6082 0.791473 42.3918 0.791474 43.3887 1.94084L47.8918 7.13312C48.8623 8.25214 50.4321 8.63906 51.8115 8.09923L58.2117 5.5944C59.6285 5.03993 61.2079 5.86885 61.5564 7.3498L63.1307 14.04C63.47 15.4819 64.6802 16.554 66.1525 16.7171L72.9837 17.4735C74.4958 17.6409 75.5091 19.1089 75.1294 20.5822L73.4143 27.2377C73.0447 28.6721 73.618 30.1838 74.8459 31.0124L80.5431 34.8568C81.8042 35.7078 82.0192 37.4785 80.9984 38.6066L76.3868 43.7027C75.3929 44.801 75.198 46.406 75.9001 47.7103L79.1582 53.762C79.8794 55.1016 79.2469 56.7693 77.8187 57.2938L71.367 59.6631C69.9766 60.1737 69.0581 61.5043 69.0738 62.9855L69.1463 69.858C69.1623 71.3794 67.8272 72.5622 66.3189 72.3629L59.5051 71.4625C58.0367 71.2685 56.6051 72.0198 55.9306 73.3386L52.8009 79.4577C52.1081 80.8122 50.3763 81.239 49.1334 80.3616L43.5185 76.3979C42.3084 75.5436 40.6916 75.5436 39.4815 76.3979L33.8666 80.3616C32.6237 81.2391 30.8919 80.8122 30.1991 79.4577L27.0694 73.3386C26.3949 72.0198 24.9633 71.2685 23.4949 71.4625L16.6811 72.3629C15.1728 72.5622 13.8377 71.3794 13.8537 69.858L13.9262 62.9855C13.9419 61.5043 13.0234 60.1737 11.633 59.6631L5.18127 57.2938C3.75312 56.7693 3.12061 55.1016 3.84181 53.7619L7.09985 47.7103C7.80201 46.406 7.60713 44.801 6.61325 43.7027L2.00161 38.6066C0.980783 37.4785 1.19578 35.7078 2.45692 34.8568L2.17724 34.4423L2.45692 34.8568L8.15413 31.0124C9.38197 30.1838 9.9553 28.6721 9.58567 27.2377L7.87057 20.5822C7.49091 19.1089 8.50417 17.6409 10.0163 17.4735L16.8476 16.7171C18.3198 16.554 19.53 15.4819 19.8693 14.04L21.4436 7.3498C21.7921 5.86885 23.3715 5.03993 24.7883 5.5944L31.1885 8.09923C32.5679 8.63906 34.1377 8.25214 35.1082 7.13312L39.6113 1.94084Z" fill="#AAA6C2" fill-opacity="0.1" stroke="#595187"/>
</svg>
